<svg width="44" height="44" viewBox="0 0 44 44" fill="none" xmlns="http://www.w3.org/2000/svg">
<circle cx="22" cy="22" r="22" fill="#FFDA30"/>
<path fill-rule="evenodd" clip-rule="evenodd" d="M18.9973 17.4749V19.68C18.9973 19.994 19.0811 20.2783 18.7404 20.3636C18.7154 20.3697 18.6935 20.3843 18.6785 20.4047C18.6636 20.4251 18.6566 20.45 18.6588 20.475C18.7796 21.9485 19.5987 22.4293 21.1891 22.4523L21.1854 22.3774C21.2066 22.2597 21.2695 22.1531 21.3633 22.076C21.4571 21.999 21.5756 21.9565 21.6983 21.956H22.4308C22.5687 21.9565 22.7008 22.0101 22.7983 22.105C22.8958 22.2 22.9508 22.3286 22.9513 22.4628V22.5441C22.9508 22.6784 22.8958 22.807 22.7983 22.9019C22.7008 22.9969 22.5687 23.0504 22.4308 23.0509H21.6985C21.4093 23.0509 21.3622 22.8734 21.2563 22.8725C19.3775 22.8601 18.3533 22.2169 18.2245 20.4623C18.223 20.4388 18.2134 20.4165 18.1973 20.3989C18.1812 20.3814 18.1594 20.3696 18.1356 20.3655C17.3515 20.2235 16.987 19.5276 16.987 18.7937H16.9862C16.9862 18.3562 17.1192 17.9212 17.3426 17.6457C17.3481 17.6388 17.3541 17.6323 17.3605 17.6262C17.9919 17.0247 18.5584 17.4247 18.5736 17.1612C18.594 16.7216 18.699 16.2896 18.8831 15.8877C19.8368 13.7569 22.731 13.4604 24.4107 14.8445C24.7821 15.1506 25.1388 15.7408 25.2878 16.1723C25.3921 16.4947 25.4571 16.8279 25.4816 17.1651C25.5044 17.4215 26.0657 17.0336 26.687 17.6253V17.6256C27.1129 18.0329 26.9998 18.7894 26.9919 19.3152C26.9797 20.1291 26.2094 20.3917 25.5067 20.3917V20.3912C25.4933 20.3912 25.48 20.39 25.4668 20.3876C24.9128 20.2861 25.0502 19.9753 25.0502 19.5798C25.0502 18.565 25.1946 17.2185 24.8792 16.3052C24.756 15.9485 24.441 15.4195 24.1321 15.1649C22.6674 13.9581 20.1137 14.1889 19.2784 16.0552C19.0624 16.538 18.9975 16.9383 18.9975 17.4749H18.9973ZM21.6985 21.6322H22.4311C22.6059 21.6326 22.7764 21.6852 22.9196 21.7828C23.0629 21.8804 23.172 22.0183 23.2323 22.1781C23.2378 22.1928 23.2465 22.2061 23.2578 22.2171C23.2692 22.2281 23.2829 22.2365 23.298 22.2418C23.313 22.247 23.3291 22.249 23.3451 22.2474C23.361 22.2459 23.3764 22.241 23.3902 22.233C23.723 22.0362 23.9976 21.7586 24.1874 21.4275C24.3771 21.0963 24.4753 20.723 24.4726 20.3438V18.1062C24.4726 16.742 23.3907 15.5681 21.9998 15.5681C20.609 15.5681 19.5272 16.742 19.5272 18.1062V20.3438C19.5244 20.7164 19.6192 21.0835 19.8026 21.4105C19.986 21.7375 20.2519 22.0136 20.5753 22.2128C20.6152 22.2366 20.737 22.2365 20.7936 22.2389C20.8166 22.2401 20.8393 22.2341 20.8585 22.2217C20.8777 22.2094 20.8924 22.1914 20.9003 22.1703C20.9617 22.0124 21.0709 21.8764 21.2134 21.7803C21.356 21.6842 21.5251 21.6325 21.6985 21.6321V21.6322ZM19.9286 23.5096H24.0716C25.3657 23.5096 26.5663 24.0154 27.4568 24.7687C28.4009 25.5674 29 26.6479 29 27.7063V29.5517C29 30.3574 28.3004 31 27.4692 31H16.5308C15.6996 31 15 30.3572 15 29.5517V27.7063C15 26.6479 15.5991 25.5674 16.5432 24.7687C17.4337 24.0154 18.6343 23.5096 19.9284 23.5096H19.9286Z" fill="black"/>
</svg>
