<svg width="44" height="44" viewBox="0 0 44 44" fill="none" xmlns="http://www.w3.org/2000/svg">
<circle cx="22" cy="22" r="22" fill="#FFDA30"/>
<path d="M25.493 13.667H18.5096C15.4763 13.667 13.668 15.4753 13.668 18.5087V25.4837C13.668 28.5253 15.4763 30.3337 18.5096 30.3337H25.4846C28.518 30.3337 30.3263 28.5253 30.3263 25.492V18.5087C30.3346 15.4753 28.5263 13.667 25.493 13.667Z" fill="#FFDA30"/>
<path d="M26.0268 19.8417C25.9685 19.7001 25.8518 19.5834 25.7102 19.5251C25.6435 19.5001 25.5685 19.4834 25.4935 19.4834H23.9435C23.6185 19.4834 23.3602 19.7417 23.3602 20.0667C23.3602 20.3917 23.6185 20.6501 23.9435 20.6501H24.0935L22.3352 22.4084L21.4852 21.1417C21.3852 21.0001 21.2352 20.9001 21.0602 20.8834C20.8768 20.8667 20.7185 20.9251 20.5935 21.0501L18.1102 23.5334C17.8852 23.7584 17.8852 24.1251 18.1102 24.3584C18.2268 24.4751 18.3685 24.5251 18.5185 24.5251C18.6685 24.5251 18.8185 24.4667 18.9268 24.3584L20.9102 22.3751L21.7602 23.6417C21.8602 23.7834 22.0102 23.8834 22.1852 23.9001C22.3685 23.9167 22.5268 23.8584 22.6518 23.7334L24.9185 21.4667V21.6167C24.9185 21.9417 25.1768 22.2001 25.5018 22.2001C25.8268 22.2001 26.0852 21.9417 26.0852 21.6167V20.0584C26.0685 19.9834 26.0602 19.9084 26.0268 19.8417Z" fill="black"/>
<path d="M29.6168 14H20.3942C16.3882 14 14 16.387 14 20.391V29.598C14 33.613 16.3882 36 20.3942 36H29.6058C33.6118 36 36 33.613 36 29.609V20.391C36.011 16.387 33.6228 14 29.6168 14Z" fill="#FFDA30"/>
<g clip-path="url(#clip0_10002_881)">
<path d="M20.0474 26.9576L18.0442 28.9607C17.2138 29.7912 15.8689 29.7912 15.0391 28.9609C14.2092 28.1309 14.2092 26.7859 15.039 25.9562L19.046 21.9492C19.8757 21.1193 21.2207 21.1193 22.0505 21.9492C22.3271 22.2258 22.7756 22.2258 23.0522 21.9492C23.3289 21.6725 23.3289 21.224 23.0522 20.9474C21.6692 19.5644 19.4273 19.5644 18.0442 20.9474L14.0373 24.9544C12.6542 26.3375 12.6542 28.5794 14.0373 29.9624C15.4201 31.3462 17.6622 31.3462 19.046 29.9624L21.0492 27.9593C21.3258 27.6827 21.3258 27.2342 21.0492 26.9576C20.7725 26.6809 20.324 26.6809 20.0474 26.9576Z" fill="black"/>
<path d="M28.9625 20.0453C30.3455 18.6622 30.3455 16.4203 28.9625 15.0373C27.5795 13.6543 25.3377 13.6543 23.9539 15.0371L21.5504 17.4406C21.2738 17.7172 21.2738 18.1657 21.5504 18.4423C21.827 18.719 22.2755 18.719 22.5522 18.4423L24.9555 16.039C25.7858 15.2092 27.131 15.2092 27.9608 16.039C28.7905 16.8688 28.7905 18.2138 27.9608 19.0435L23.5536 23.4507C22.7238 24.2805 21.3788 24.2805 20.549 23.4507C20.2724 23.1741 19.8239 23.1741 19.5473 23.4507C19.2707 23.7274 19.2707 24.1759 19.5473 24.4525C20.9303 25.8355 23.1723 25.8355 24.5553 24.4525L28.9625 20.0453Z" fill="black"/>
<path d="M26.2522 26.2495C25.9755 25.9728 25.527 25.9728 25.2504 26.2495C24.9738 26.5261 24.9738 26.9746 25.2504 27.2512L27.3747 29.3755C27.6513 29.6521 28.0998 29.6521 28.3764 29.3755C28.653 29.0988 28.653 28.6503 28.3764 28.3737L26.2522 26.2495Z" fill="black"/>
<path d="M16.7518 18.7516C17.0284 19.0282 17.4769 19.0282 17.7536 18.7516C18.0302 18.475 18.0302 18.0265 17.7536 17.7499L15.6272 15.6235C15.3505 15.3469 14.902 15.3469 14.6254 15.6235C14.3488 15.9001 14.3488 16.3486 14.6254 16.6252L16.7518 18.7516Z" fill="black"/>
<path d="M29.2903 24.625H27.1653C26.7742 24.625 26.457 24.9421 26.457 25.3333C26.457 25.7245 26.7742 26.0416 27.1653 26.0416H29.2903C29.6815 26.0416 29.9986 25.7245 29.9986 25.3333C29.9986 24.9421 29.6815 24.625 29.2903 24.625Z" fill="black"/>
<path d="M18.6653 17.5416C19.0565 17.5416 19.3737 17.2245 19.3737 16.8333V14.7083C19.3737 14.3171 19.0565 14 18.6653 14C18.2742 14 17.957 14.3171 17.957 14.7083V16.8333C17.957 17.2245 18.2742 17.5416 18.6653 17.5416Z" fill="black"/>
<path d="M13.7083 20.3746H15.8333C16.2245 20.3746 16.5416 20.0575 16.5416 19.6663C16.5416 19.2751 16.2245 18.958 15.8333 18.958H13.7083C13.3171 18.958 13 19.2751 13 19.6663C13 20.0575 13.3171 20.3746 13.7083 20.3746Z" fill="black"/>
<path d="M24.3333 27.458C23.9421 27.458 23.625 27.7751 23.625 28.1663V30.2913C23.625 30.6825 23.9421 30.9996 24.3333 30.9996C24.7245 30.9996 25.0416 30.6825 25.0416 30.2913V28.1663C25.0417 27.7752 24.7245 27.458 24.3333 27.458Z" fill="black"/>
</g>
<defs>
<clipPath id="clip0_10002_881">
<rect width="17" height="17" fill="white" transform="translate(13 14)"/>
</clipPath>
</defs>
</svg>
