<svg xmlns="http://www.w3.org/2000/svg" width="24" height="24" viewBox="0 0 24 24" fill="none"><path d="M24 12C24 5.37258 18.6274 0 12 0C5.37258 0 0 5.37258 0 12C0 18.6274 5.37258 24 12 24C18.6274 24 24 18.6274 24 12Z" fill="#EBEBEB"></path><path d="M14.8057 8.09467L8.09605 14.8043C7.81864 15.0818 7.81864 15.5315 8.09605 15.8089C8.37346 16.0864 8.82323 16.0864 9.10065 15.8089L15.8103 9.09926C16.0877 8.82185 16.0877 8.37208 15.8103 8.09467C15.5329 7.81726 15.0831 7.81726 14.8057 8.09467Z" fill="#A3A3A3"></path><path d="M15.9073 14.8038L9.19761 8.09409C8.9202 7.81668 8.47043 7.81668 8.19301 8.0941C7.9156 8.37151 7.9156 8.82128 8.19301 9.09869L14.9027 15.8084C15.1801 16.0858 15.6299 16.0858 15.9073 15.8084C16.1847 15.531 16.1847 15.0812 15.9073 14.8038Z" fill="#A3A3A3"></path></svg>