<svg width="44" height="44" viewBox="0 0 44 44" fill="none" xmlns="http://www.w3.org/2000/svg">
<circle cx="22" cy="22" r="22" fill="#FFDA30"/>
<path d="M31.1654 17.9072V26.5835C31.1654 27.2849 30.8974 27.9599 30.4162 28.4702C29.935 28.9806 29.2769 29.2877 28.5767 29.3289L28.4154 29.3335H15.582C14.8806 29.3335 14.2056 29.0655 13.6953 28.5843C13.1849 28.1031 12.8778 27.445 12.8366 26.7448L12.832 26.5835V17.9072L21.4899 23.6795L21.5963 23.74C21.7216 23.8012 21.8592 23.833 21.9987 23.833C22.1382 23.833 22.2758 23.8012 22.4011 23.74L22.5074 23.6795L31.1654 17.9072Z" fill="black"/>
<path d="M28.4137 14.667C29.4037 14.667 30.2718 15.1895 30.7558 15.9751L21.997 21.8142L13.2383 15.9751C13.4682 15.6018 13.784 15.289 14.1593 15.0625C14.5347 14.8361 14.9587 14.7027 15.3961 14.6734L15.5804 14.667H28.4137Z" fill="black"/>
</svg>
