<svg width="51" height="50" viewBox="0 0 51 50" fill="none" xmlns="http://www.w3.org/2000/svg">
<circle cx="25.9805" cy="25" r="25" fill="#FFDA30"/>
<path d="M33.3348 22.0313C32.8216 21.7388 32.2433 21.5879 31.6564 21.5933C31.0695 21.5986 30.494 21.7602 29.9859 22.062L24.8843 25.1032L18.4533 21.2799C18.0665 21.0507 17.7275 20.7456 17.4555 20.3818C17.1835 20.018 16.984 19.6028 16.8682 19.1597C16.7525 18.7167 16.7228 18.2546 16.7808 17.7998C16.8389 17.345 16.9836 16.9064 17.2067 16.5091C17.4297 16.1117 17.7268 15.7634 18.0809 15.484C18.435 15.2046 18.8392 14.9996 19.2704 14.8807C19.7016 14.7617 20.1514 14.7312 20.5941 14.7909C21.0368 14.8506 21.4637 14.9992 21.8505 15.2284L23.4606 16.1877L29.8617 19.9826L33.3348 22.0313Z" fill="black"/>
<path d="M35.0856 25.1034C35.0857 25.5711 34.9942 26.0339 34.8165 26.4645C34.7912 26.5259 34.7659 26.585 34.7383 26.6417C34.7107 26.6984 34.6624 26.7929 34.6187 26.878C34.575 26.9631 34.5451 27.0056 34.5037 27.0647C34.4623 27.1237 34.4209 27.1899 34.3749 27.2513C34.3289 27.3128 34.2921 27.36 34.2461 27.412C34.2001 27.464 34.1932 27.4758 34.1633 27.5065L34.0897 27.5869L34.0115 27.6625C33.9825 27.692 33.9517 27.7196 33.9195 27.7452C33.8706 27.7932 33.8183 27.8374 33.7631 27.8775C33.7063 27.9248 33.6465 27.9697 33.5837 28.0122C33.5239 28.0524 33.4618 28.0925 33.3996 28.128L33.3858 28.1398L33.3559 28.1563C32.8419 28.4565 32.2603 28.6129 31.669 28.61C31.0777 28.6071 30.4976 28.445 29.9863 28.1398L24.8848 25.1034L29.9863 22.0694C30.4938 21.7664 31.069 21.6037 31.6559 21.5971C32.2428 21.5904 32.8214 21.7401 33.3352 22.0316L33.3858 22.0599C33.4526 22.1025 33.5193 22.1426 33.5837 22.1875C33.6481 22.2324 33.7056 22.275 33.7631 22.3222C33.8173 22.3636 33.8695 22.4078 33.9195 22.4545C33.9518 22.481 33.9825 22.5094 34.0115 22.5396C34.0391 22.5632 34.0644 22.5892 34.0897 22.6152L34.1633 22.6932C34.1927 22.7238 34.2204 22.7561 34.2461 22.7901C34.2921 22.8421 34.3335 22.8941 34.3749 22.9484C34.4163 23.0027 34.4623 23.0713 34.5037 23.1351C34.5451 23.1989 34.5888 23.2698 34.6279 23.3383C34.667 23.4068 34.6923 23.4564 34.7222 23.5131C35.0373 24.4087 35.0856 24.7513 35.0856 25.1034Z" fill="black"/>
<path d="M31.6806 28.5885C32.2676 28.5886 32.8445 28.4323 33.3551 28.1348L21.8547 34.959C21.0739 35.4227 20.1457 35.5488 19.2744 35.3095C18.4031 35.0702 17.66 34.4852 17.2086 33.683C16.7571 32.8808 16.6344 31.9273 16.8673 31.0321C17.1003 30.137 17.6698 29.3736 18.4506 28.9098L24.8839 25.1031L29.9855 28.1182C30.5 28.4265 31.085 28.5888 31.6806 28.5885Z" fill="black"/>
<path d="M29.787 19.5928C29.1542 19.9639 28.434 20.1616 27.7001 20.166C26.9662 20.1704 26.2436 19.9817 25.6064 19.6182C24.9691 19.2546 24.4391 18.7292 24.0702 18.0957C23.7013 17.4622 23.5069 16.7425 23.5058 16.0098C23.5047 15.9971 23.5047 15.9843 23.5058 15.9717L29.787 19.5928ZM27.6923 11.833C28.7968 11.8381 29.8543 12.2811 30.6317 13.0645C31.4091 13.8477 31.8428 14.9072 31.8378 16.0098C31.8379 16.7335 31.6486 17.4449 31.289 18.0732C30.9293 18.7016 30.4116 19.2254 29.787 19.5928L23.5087 15.9717C23.5138 14.869 23.9575 13.8132 24.7421 13.0371C25.5267 12.2611 26.5879 11.828 27.6923 11.833Z" fill="#FF7F00"/>
</svg>
