<svg width="32" height="32" viewBox="0 0 32 32" fill="none" xmlns="http://www.w3.org/2000/svg">
<circle cx="16" cy="16" r="16" fill="black"/>
<path d="M13.5938 20.3265V13.5532C13.5938 13.2865 13.6737 13.0265 13.8204 12.8065L15.6404 10.0998C15.9271 9.66649 16.6404 9.35982 17.2471 9.58649C17.9004 9.80649 18.3337 10.5398 18.1937 11.1932L17.8471 13.3732C17.8204 13.5732 17.8737 13.7532 17.9871 13.8932C18.1004 14.0198 18.2671 14.0998 18.4471 14.0998H21.1871C21.7137 14.0998 22.1671 14.3132 22.4337 14.6865C22.6871 15.0465 22.7337 15.5132 22.5671 15.9865L20.9271 20.9798C20.7204 21.8065 19.8204 22.4798 18.9271 22.4798H16.3271C15.8804 22.4798 15.2537 22.3265 14.9671 22.0398L14.1137 21.3798C13.7871 21.1332 13.5938 20.7398 13.5938 20.3265Z" fill="#FFDA30"/>
<path d="M11.472 12.2529H10.7854C9.75203 12.2529 9.33203 12.6529 9.33203 13.6396V20.3463C9.33203 21.3329 9.75203 21.7329 10.7854 21.7329H11.472C12.5054 21.7329 12.9254 21.3329 12.9254 20.3463V13.6396C12.9254 12.6529 12.5054 12.2529 11.472 12.2529Z" fill="#FFDA30"/>
</svg>
