<svg width="40" height="40" viewBox="0 0 40 40" fill="none" xmlns="http://www.w3.org/2000/svg">
<rect width="40" height="40" rx="20" fill="#E7EDF0"/>
<path d="M19.9967 17.6657C19.3782 17.6673 18.7854 17.9137 18.3481 18.3511C17.9107 18.7884 17.6643 19.3812 17.6627 19.9997C17.6643 20.6182 17.9107 21.211 18.3481 21.6483C18.7854 22.0857 19.3782 22.3321 19.9967 22.3337C20.6152 22.3321 21.208 22.0857 21.6453 21.6483C22.0827 21.211 22.3291 20.6182 22.3307 19.9997C22.3291 19.3812 22.0827 18.7884 21.6453 18.3511C21.208 17.9137 20.6152 17.6673 19.9967 17.6657ZM26.9987 19.9997C26.9987 19.0327 27.0077 18.0747 26.9537 17.1097C26.8987 15.9897 26.6437 14.9947 25.8237 14.1757C25.0027 13.3537 24.0097 13.0997 22.8887 13.0457C21.9227 12.9917 20.9647 13.0007 19.9987 13.0007C19.0327 13.0007 18.0747 12.9907 17.1097 13.0457C15.9897 13.0997 14.9947 13.3557 14.1757 14.1757C13.3537 14.9957 13.0997 15.9897 13.0457 17.1107C12.9917 18.0767 13.0007 19.0347 13.0007 19.9997C13.0007 20.9647 12.9907 21.9247 13.0457 22.8897C13.0997 24.0097 13.3557 25.0047 14.1757 25.8237C14.9957 26.6457 15.9897 26.8997 17.1097 26.9537C18.0767 27.0077 19.0347 26.9997 19.9997 26.9997C20.9657 26.9997 21.9237 27.0077 22.8897 26.9537C24.0097 26.8997 25.0047 26.6437 25.8237 25.8237C26.6447 25.0037 26.8987 24.0097 26.9537 22.8897C27.0097 21.9247 26.9987 20.9667 26.9987 19.9997ZM19.9987 23.5917C19.5266 23.5926 19.059 23.5004 18.6227 23.3202C18.1864 23.14 17.7899 22.8755 17.456 22.5418C17.1221 22.2081 16.8574 21.8118 16.677 21.3756C16.4966 20.9393 16.4041 20.4718 16.4047 19.9997C16.4041 19.5279 16.4965 19.0606 16.6767 18.6246C16.8569 18.1885 17.1214 17.7923 17.455 17.4587C17.7885 17.125 18.1847 16.8604 18.6206 16.6801C19.0566 16.4997 19.5239 16.4072 19.9957 16.4077C20.4677 16.4069 20.9352 16.4993 21.3714 16.6795C21.8076 16.8597 22.204 17.1243 22.5378 17.458C22.8715 17.7917 23.1362 18.1879 23.3165 18.6241C23.4969 19.0603 23.5894 19.5277 23.5887 19.9997C23.5894 20.4716 23.4969 20.939 23.3166 21.3751C23.1363 21.8112 22.8718 22.2074 22.5381 22.5411C22.2044 22.8748 21.8082 23.1393 21.3721 23.3196C20.936 23.4999 20.4686 23.5924 19.9967 23.5917H19.9987ZM23.7347 17.0997C23.5122 17.0997 23.2988 17.0113 23.1414 16.854C22.9841 16.6966 22.8957 16.4832 22.8957 16.2607C22.8957 16.0382 22.9841 15.8248 23.1414 15.6674C23.2988 15.5101 23.5122 15.4217 23.7347 15.4217C23.9572 15.4217 24.1706 15.5101 24.328 15.6674C24.4853 15.8248 24.5737 16.0382 24.5737 16.2607C24.5737 16.4832 24.4853 16.6966 24.328 16.854C24.1706 17.0113 23.9572 17.0997 23.7347 17.0997Z" fill="#4F5C62"/>
</svg>
