<svg width="40" height="40" viewBox="0 0 40 40" fill="none" xmlns="http://www.w3.org/2000/svg">
<rect width="40" height="40" rx="20" fill="#E7EDF0"/>
<path d="M15.86 13.813C15.86 14.814 14.996 15.626 13.93 15.626C12.864 15.626 12 14.814 12 13.813C12 12.812 12.864 12 13.93 12C14.996 12 15.86 12.812 15.86 13.813ZM12.264 16.959H15.563V27H12.263L12.264 16.959ZM20.874 16.959H17.575V27H20.875V21.862C20.875 20.676 21.277 19.485 22.887 19.485C24.705 19.485 24.694 21.037 24.686 22.24C24.675 23.812 24.701 25.416 24.701 27H28V21.7C27.972 18.316 27.094 16.757 24.206 16.757C22.491 16.757 21.428 17.539 20.874 18.247V16.959Z" fill="#4F5C62"/>
</svg>
