<svg width="28" height="18" viewBox="0 0 28 18" fill="none" xmlns="http://www.w3.org/2000/svg">
<path d="M0.794578 8.21661C0.355744 8.21661 0 8.53 0 8.9166C0 9.30322 0.355744 9.61661 0.794578 9.61661V8.21661ZM25.8238 9.61661C26.2626 9.61661 26.6184 9.30322 26.6184 8.9166C26.6184 8.53 26.2626 8.21661 25.8238 8.21661V9.61661ZM27.0156 8.9166L27.5525 9.43264C27.7168 9.3 27.8102 9.11282 27.8102 8.9166C27.8102 8.7204 27.7168 8.53322 27.5525 8.40057L27.0156 8.9166ZM18.0176 0.700598C17.6941 0.439363 17.1915 0.458615 16.8949 0.743598C16.5985 1.02858 16.6203 1.47138 16.9438 1.73261L18.0176 0.700598ZM16.9438 16.1006C16.6203 16.3618 16.5985 16.8046 16.8949 17.0896C17.1915 17.3746 17.6941 17.3938 18.0176 17.1326L16.9438 16.1006ZM0.794578 9.61661H25.8238V8.21661H0.794578V9.61661ZM27.5525 8.40057L18.0176 0.700598L16.9438 1.73261L26.4787 9.43264L27.5525 8.40057ZM26.4787 8.40057L16.9438 16.1006L18.0176 17.1326L27.5525 9.43264L26.4787 8.40057Z" fill="#FF7F00"/>
</svg>
