<svg width="95" height="23" viewBox="0 0 95 23" fill="none" xmlns="http://www.w3.org/2000/svg">
<g clip-path="url(#clip0_10029_676)">
<path d="M92.6999 21.3311C92.7577 21.3316 92.815 21.3204 92.8682 21.2981C92.9214 21.2758 92.9695 21.2428 93.0094 21.2013C93.0492 21.1597 93.0801 21.1105 93.1 21.0566C93.1199 21.0028 93.1285 20.9454 93.1252 20.8881C93.1252 20.5739 92.9343 20.4238 92.5428 20.4238H91.9102V22.0686H92.1481V21.3517H92.4405L92.4472 21.3604L92.9009 22.0686H93.1554L92.6672 21.3356L92.6999 21.3311ZM92.4247 21.1663H92.1488V20.6102H92.4985C92.6792 20.6102 92.8851 20.6396 92.8851 20.8745C92.8851 21.1447 92.6767 21.1663 92.4233 21.1663" fill="#0A66C2"/>
<path d="M0 3.34668H3.51225V16.0528H10.0145V19.272H0V3.34668Z" fill="#0A66C2"/>
<path d="M11.5675 8.47361H14.9416V19.2655H11.5675V8.47361ZM13.2546 3.1084C13.6417 3.10847 14.0201 3.22254 14.3419 3.43619C14.6638 3.64984 14.9146 3.95347 15.0627 4.30869C15.2108 4.66391 15.2495 5.05476 15.1739 5.43184C15.0983 5.80891 14.9119 6.15526 14.6381 6.42709C14.3644 6.69892 14.0156 6.88403 13.6359 6.95901C13.2563 7.034 12.8627 6.99548 12.5051 6.84833C12.1475 6.70119 11.8418 6.45202 11.6267 6.13235C11.4117 5.81267 11.2969 5.43684 11.2969 5.05237C11.2969 4.79705 11.3475 4.54424 11.4459 4.30836C11.5443 4.07249 11.6885 3.85817 11.8703 3.67765C12.0521 3.49713 12.2679 3.35395 12.5054 3.25627C12.7429 3.1586 12.9975 3.10835 13.2546 3.1084Z" fill="#0A66C2"/>
<path d="M29.0547 3.34375H32.4288V12.8611L36.2528 8.4688H40.3896L35.9611 13.465L40.2965 19.2701H36.0556L32.4738 13.9356H32.4295V19.2694H29.0554L29.0547 3.34375Z" fill="#0A66C2"/>
<path d="M16.8125 8.47504H20.0527V9.94986H20.0987C20.4224 9.39917 20.8906 8.94612 21.4533 8.63909C22.016 8.33205 22.6521 8.18257 23.2936 8.2066C26.7152 8.2066 27.345 10.4424 27.345 13.347V19.2651H23.9709V14.0183C23.9709 12.7658 23.9477 11.1559 22.2136 11.1559C20.4597 11.1559 20.1891 12.5197 20.1891 13.9272V19.2638H16.815L16.8125 8.47504Z" fill="#0A66C2"/>
<path d="M47.4955 12.6144C47.502 12.3426 47.4528 12.0722 47.351 11.8198C47.2491 11.5674 47.0968 11.3381 46.9031 11.1458C46.7094 10.9536 46.4784 10.8024 46.2242 10.7015C45.9699 10.6005 45.6977 10.5518 45.424 10.5584C44.8344 10.522 44.2541 10.7171 43.8081 11.1017C43.362 11.4863 43.086 12.0296 43.0396 12.6144H47.4955ZM50.3537 17.3967C49.793 18.072 49.0881 18.615 48.2901 18.9863C47.4921 19.3577 46.6209 19.5481 45.7396 19.5438C42.3655 19.5438 39.6641 17.307 39.6641 13.8432C39.6641 10.3793 42.3651 8.14355 45.7396 8.14355C48.8934 8.14355 50.8711 10.3776 50.8711 13.8432V14.8939H43.0396C43.1371 15.4898 43.4482 16.0306 43.9154 16.4167C44.3827 16.8028 44.9748 17.0081 45.5825 16.9949C46.0627 16.992 46.5346 16.8698 46.9552 16.6394C47.3757 16.4091 47.7316 16.078 47.9904 15.6761L50.3537 17.3967Z" fill="#0A66C2"/>
<path d="M57.9043 11.0824C56.2173 11.0824 55.2051 12.2011 55.2051 13.8313C55.2051 15.4614 56.2169 16.5813 57.9043 16.5813C59.5918 16.5813 60.6061 15.4642 60.6061 13.8313C60.6061 12.1983 59.5935 11.0824 57.9043 11.0824ZM63.7124 19.2635H60.6061V17.8323H60.5601C60.1704 18.3529 59.6649 18.7771 59.0831 19.0718C58.5012 19.3666 57.8587 19.5239 57.2056 19.5316C53.9637 19.5316 51.8281 17.2078 51.8281 13.9217C51.8281 10.9036 53.718 8.13237 56.8246 8.13237C58.221 8.13237 59.5253 8.5118 60.2905 9.56355H60.3348V3.34277H63.7121L63.7124 19.2635Z" fill="#0A66C2"/>
<path d="M86.4928 19.2702H83.1187V14.0223C83.1187 12.7709 83.0962 11.1599 81.3638 11.1599C79.6064 11.1599 79.3376 12.5234 79.3376 13.9312V19.2699H75.9634V8.47801H79.2026V9.95283H79.2479C79.5721 9.40236 80.0405 8.94952 80.6033 8.64254C81.1661 8.33555 81.8022 8.18592 82.4439 8.20958C85.8637 8.20958 86.4942 10.4436 86.4942 13.35L86.4928 19.2702ZM72.1563 7.00284C71.769 7.00291 71.3904 6.88893 71.0684 6.6753C70.7464 6.46167 70.4954 6.158 70.3471 5.80269C70.1988 5.44737 70.16 5.05637 70.2355 4.67913C70.3109 4.30188 70.4974 3.95535 70.7712 3.68333C71.0449 3.41131 71.3938 3.22604 71.7736 3.15094C72.1534 3.07583 72.5471 3.11427 72.9049 3.2614C73.2627 3.40852 73.5686 3.65772 73.7838 3.97748C73.999 4.29724 74.1139 4.6732 74.114 5.05782C74.114 5.3132 74.0634 5.56609 73.9651 5.80204C73.8667 6.038 73.7225 6.2524 73.5408 6.43301C73.359 6.61362 73.1431 6.75691 72.9056 6.85468C72.668 6.95245 72.4134 7.00279 72.1563 7.00284ZM73.8434 19.2702H70.4657V8.47801H73.8434V19.2702ZM88.175 0.00154085H68.7702C68.3298 -0.00339547 67.9054 0.165532 67.5903 0.471203C67.2752 0.776874 67.0952 1.19428 67.0898 1.6317V20.9838C67.095 21.4214 67.2749 21.8391 67.59 22.1451C67.9051 22.4511 68.3296 22.6204 68.7702 22.6157H88.175C88.6165 22.6212 89.0422 22.4524 89.3585 22.1464C89.6748 21.8405 89.8559 21.4223 89.862 20.9838V1.6303C89.8557 1.19202 89.6745 0.774135 89.3582 0.468472C89.0418 0.162809 88.6163 -0.00563646 88.175 0.000144008" fill="#0A66C2"/>
<path d="M92.4519 19.6914C92.0414 19.6953 91.6492 19.8605 91.361 20.1509C91.0728 20.4413 90.9121 20.8332 90.9141 21.2409C90.9161 21.6487 91.0805 22.039 91.3715 22.3266C91.6625 22.6143 92.0563 22.7757 92.4669 22.7757C92.8774 22.7757 93.2712 22.6143 93.5622 22.3266C93.8532 22.039 94.0177 21.6487 94.0197 21.2409C94.0216 20.8332 93.861 20.4413 93.5728 20.1509C93.2846 19.8605 92.8923 19.6953 92.4818 19.6914H92.4519ZM92.4519 22.5992C92.1827 22.6036 91.9181 22.5287 91.6918 22.3838C91.4654 22.2389 91.2874 22.0306 91.1802 21.7853C91.073 21.5399 91.0415 21.2685 91.0896 21.0053C91.1377 20.7422 91.2634 20.4991 91.4506 20.3069C91.6378 20.1146 91.8782 19.9818 92.1414 19.9253C92.4047 19.8688 92.6789 19.891 92.9293 19.9892C93.1798 20.0875 93.3953 20.2573 93.5487 20.4771C93.702 20.697 93.7862 20.9571 93.7907 21.2245C93.7907 21.2322 93.7907 21.2395 93.7907 21.2472C93.7982 21.598 93.6652 21.9374 93.4208 22.1908C93.1764 22.4442 92.8406 22.5909 92.4874 22.5985H92.4523" fill="#0A66C2"/>
</g>
<defs>
<clipPath id="clip0_10029_676">
<rect width="94.02" height="22.8034" fill="white"/>
</clipPath>
</defs>
</svg>
