<svg width="170" height="50" viewBox="0 0 170 50" fill="none" xmlns="http://www.w3.org/2000/svg">
<circle cx="25" cy="25" r="25" fill="#FFDA30"/>
<path d="M32.3563 22.0313C31.8431 21.7388 31.2648 21.5879 30.6779 21.5933C30.091 21.5986 29.5155 21.7602 29.0074 22.062L23.9058 25.1032L17.4748 21.2799C17.088 21.0507 16.749 20.7456 16.477 20.3818C16.205 20.018 16.0055 19.6028 15.8897 19.1597C15.7739 18.7167 15.7442 18.2546 15.8023 17.7998C15.8604 17.345 16.0051 16.9064 16.2282 16.5091C16.4512 16.1117 16.7483 15.7634 17.1024 15.484C17.4565 15.2046 17.8607 14.9996 18.2919 14.8807C18.7231 14.7617 19.1729 14.7312 19.6156 14.7909C20.0583 14.8506 20.4852 14.9992 20.872 15.2284L22.4821 16.1877L28.8832 19.9826L32.3563 22.0313Z" fill="black"/>
<path d="M34.1071 25.1035C34.1072 25.5711 34.0157 26.034 33.838 26.4646C33.8127 26.526 33.7874 26.5851 33.7598 26.6418C33.7322 26.6985 33.6839 26.793 33.6402 26.8781C33.5965 26.9631 33.5666 27.0057 33.5252 27.0647C33.4838 27.1238 33.4424 27.19 33.3964 27.2514C33.3504 27.3129 33.3136 27.3601 33.2676 27.4121C33.2216 27.4641 33.2147 27.4759 33.1848 27.5066L33.1112 27.587L33.033 27.6626C33.004 27.692 32.9732 27.7197 32.941 27.7453C32.8921 27.7933 32.8398 27.8375 32.7845 27.8776C32.7278 27.9249 32.668 27.9698 32.6051 28.0123C32.5453 28.0525 32.4832 28.0926 32.4211 28.1281L32.4073 28.1399L32.3774 28.1564C31.8634 28.4566 31.2817 28.613 30.6905 28.6101C30.0992 28.6072 29.519 28.4451 29.0078 28.1399L23.9062 25.1035L29.0078 22.0695C29.5153 21.7665 30.0905 21.6038 30.6774 21.5971C31.2643 21.5905 31.8429 21.7402 32.3567 22.0317L32.4073 22.06C32.474 22.1025 32.5407 22.1427 32.6051 22.1876C32.6695 22.2325 32.727 22.275 32.7845 22.3223C32.8388 22.3637 32.891 22.4079 32.941 22.4546C32.9733 22.4811 33.004 22.5095 33.033 22.5397C33.0606 22.5633 33.0859 22.5893 33.1112 22.6153L33.1848 22.6933C33.2142 22.7239 33.2419 22.7562 33.2676 22.7902C33.3136 22.8421 33.355 22.8941 33.3964 22.9485C33.4378 23.0028 33.4838 23.0714 33.5252 23.1352C33.5666 23.199 33.6103 23.2698 33.6494 23.3384C33.6885 23.4069 33.7138 23.4565 33.7437 23.5132C34.0588 24.4088 34.1071 24.7514 34.1071 25.1035Z" fill="black"/>
<path d="M30.7021 28.5884C31.2891 28.5885 31.866 28.4322 32.3766 28.1347L20.8762 34.9589C20.0954 35.4227 19.1672 35.5488 18.2959 35.3095C17.4246 35.0702 16.6815 34.4851 16.23 33.6829C15.7786 32.8807 15.6559 31.9272 15.8888 31.0321C16.1217 30.1369 16.6913 29.3735 17.4721 28.9097L23.9054 25.103L29.007 28.1182C29.5215 28.4265 30.1065 28.5887 30.7021 28.5884Z" fill="black"/>
<path d="M28.8096 19.5928C28.1767 19.9639 27.4566 20.1616 26.7227 20.166C25.9887 20.1704 25.2662 19.9817 24.6289 19.6182C23.9916 19.2546 23.4617 18.7292 23.0928 18.0957C22.7239 17.4622 22.5294 16.7425 22.5283 16.0098C22.5272 15.9971 22.5273 15.9843 22.5283 15.9717L28.8096 19.5928ZM26.7148 11.833C27.8194 11.8381 28.8769 12.2811 29.6543 13.0645C30.4316 13.8477 30.8653 14.9072 30.8604 16.0098C30.8604 16.7335 30.6712 17.4449 30.3115 18.0732C29.9519 18.7016 29.4342 19.2254 28.8096 19.5928L22.5312 15.9717C22.5364 14.869 22.98 13.8132 23.7646 13.0371C24.5492 12.2611 25.6105 11.828 26.7148 11.833Z" fill="#FF7F00"/>
<path d="M63.1094 31.1666V14.1333H66.1194V31.1666H63.1094Z" fill="black"/>
<path d="M71.4177 26.57C71.8221 28.0322 72.9188 28.7633 74.7077 28.7633C75.8588 28.7633 76.7299 28.3744 77.321 27.5966L79.7477 28.9966C78.5966 30.6611 76.901 31.4933 74.661 31.4933C72.7321 31.4933 71.1843 30.91 70.0177 29.7433C68.851 28.5766 68.2677 27.1066 68.2677 25.3333C68.2677 23.5755 68.8432 22.1133 69.9943 20.9466C71.1455 19.7644 72.6232 19.1733 74.4277 19.1733C76.1388 19.1733 77.5466 19.7644 78.651 20.9466C79.771 22.1289 80.331 23.5911 80.331 25.3333C80.331 25.7222 80.2921 26.1344 80.2143 26.57H71.4177ZM71.371 24.2366H77.321C77.1499 23.4433 76.7921 22.8522 76.2477 22.4633C75.7188 22.0744 75.1121 21.88 74.4277 21.88C73.6188 21.88 72.9499 22.09 72.421 22.51C71.8921 22.9144 71.5421 23.49 71.371 24.2366Z" fill="black"/>
<path d="M91.2078 19.5H94.2178V31.1666H91.2078V29.79C90.3056 30.9255 89.0378 31.4933 87.4045 31.4933C85.8489 31.4933 84.5111 30.9022 83.3911 29.72C82.2867 28.5222 81.7345 27.06 81.7345 25.3333C81.7345 23.6066 82.2867 22.1522 83.3911 20.97C84.5111 19.7722 85.8489 19.1733 87.4045 19.1733C89.0378 19.1733 90.3056 19.7411 91.2078 20.8766V19.5ZM85.6545 27.7133C86.2611 28.32 87.0311 28.6233 87.9645 28.6233C88.8978 28.6233 89.6678 28.32 90.2745 27.7133C90.8967 27.0911 91.2078 26.2977 91.2078 25.3333C91.2078 24.3689 90.8967 23.5833 90.2745 22.9766C89.6678 22.3544 88.8978 22.0433 87.9645 22.0433C87.0311 22.0433 86.2611 22.3544 85.6545 22.9766C85.0478 23.5833 84.7445 24.3689 84.7445 25.3333C84.7445 26.2977 85.0478 27.0911 85.6545 27.7133Z" fill="black"/>
<path d="M105.791 14.8333H108.801V31.1666H105.791V29.79C104.904 30.9255 103.644 31.4933 102.011 31.4933C100.439 31.4933 99.0939 30.9022 97.9739 29.72C96.8695 28.5222 96.3173 27.06 96.3173 25.3333C96.3173 23.6066 96.8695 22.1522 97.9739 20.97C99.0939 19.7722 100.439 19.1733 102.011 19.1733C103.644 19.1733 104.904 19.7411 105.791 20.8766V14.8333ZM100.237 27.7133C100.859 28.32 101.637 28.6233 102.571 28.6233C103.504 28.6233 104.274 28.32 104.881 27.7133C105.487 27.0911 105.791 26.2977 105.791 25.3333C105.791 24.3689 105.487 23.5833 104.881 22.9766C104.274 22.3544 103.504 22.0433 102.571 22.0433C101.637 22.0433 100.859 22.3544 100.237 22.9766C99.6306 23.5833 99.3273 24.3689 99.3273 25.3333C99.3273 26.2977 99.6306 27.0911 100.237 27.7133Z" fill="black"/>
<path d="M120.42 19.5H123.43V31.1666H120.42V29.79C119.518 30.9255 118.25 31.4933 116.617 31.4933C115.061 31.4933 113.723 30.9022 112.603 29.72C111.499 28.5222 110.947 27.06 110.947 25.3333C110.947 23.6066 111.499 22.1522 112.603 20.97C113.723 19.7722 115.061 19.1733 116.617 19.1733C118.25 19.1733 119.518 19.7411 120.42 20.8766V19.5ZM114.867 27.7133C115.473 28.32 116.243 28.6233 117.177 28.6233C118.11 28.6233 118.88 28.32 119.487 27.7133C120.109 27.0911 120.42 26.2977 120.42 25.3333C120.42 24.3689 120.109 23.5833 119.487 22.9766C118.88 22.3544 118.11 22.0433 117.177 22.0433C116.243 22.0433 115.473 22.3544 114.867 22.9766C114.26 23.5833 113.957 24.3689 113.957 25.3333C113.957 26.2977 114.26 27.0911 114.867 27.7133Z" fill="black"/>
<path d="M128.845 22.8133C128.845 23.1244 129.047 23.3811 129.452 23.5833C129.872 23.77 130.377 23.9411 130.968 24.0966C131.559 24.2366 132.151 24.4233 132.742 24.6566C133.333 24.8744 133.831 25.2477 134.235 25.7766C134.655 26.3055 134.865 26.9666 134.865 27.76C134.865 28.9577 134.414 29.8833 133.512 30.5366C132.625 31.1744 131.513 31.4933 130.175 31.4933C127.779 31.4933 126.146 30.5677 125.275 28.7166L127.888 27.2466C128.231 28.2577 128.993 28.7633 130.175 28.7633C131.248 28.7633 131.785 28.4289 131.785 27.76C131.785 27.4489 131.575 27.2 131.155 27.0133C130.751 26.8111 130.253 26.6322 129.662 26.4766C129.071 26.3211 128.479 26.1266 127.888 25.8933C127.297 25.66 126.792 25.2944 126.372 24.7966C125.967 24.2833 125.765 23.6455 125.765 22.8833C125.765 21.7322 126.185 20.83 127.025 20.1766C127.881 19.5077 128.938 19.1733 130.198 19.1733C131.147 19.1733 132.011 19.3911 132.788 19.8266C133.566 20.2466 134.181 20.8533 134.632 21.6466L132.065 23.0466C131.692 22.2533 131.069 21.8566 130.198 21.8566C129.809 21.8566 129.483 21.9422 129.218 22.1133C128.969 22.2844 128.845 22.5177 128.845 22.8133Z" fill="black"/>
<path d="M138.962 22.8133C138.962 23.1244 139.164 23.3811 139.569 23.5833C139.989 23.77 140.494 23.9411 141.086 24.0966C141.677 24.2366 142.268 24.4233 142.859 24.6566C143.45 24.8744 143.948 25.2477 144.352 25.7766C144.772 26.3055 144.982 26.9666 144.982 27.76C144.982 28.9577 144.531 29.8833 143.629 30.5366C142.742 31.1744 141.63 31.4933 140.292 31.4933C137.897 31.4933 136.263 30.5677 135.392 28.7166L138.006 27.2466C138.348 28.2577 139.11 28.7633 140.292 28.7633C141.366 28.7633 141.902 28.4289 141.902 27.76C141.902 27.4489 141.692 27.2 141.272 27.0133C140.868 26.8111 140.37 26.6322 139.779 26.4766C139.188 26.3211 138.597 26.1266 138.006 25.8933C137.414 25.66 136.909 25.2944 136.489 24.7966C136.084 24.2833 135.882 23.6455 135.882 22.8833C135.882 21.7322 136.302 20.83 137.142 20.1766C137.998 19.5077 139.056 19.1733 140.316 19.1733C141.264 19.1733 142.128 19.3911 142.906 19.8266C143.683 20.2466 144.298 20.8533 144.749 21.6466L142.182 23.0466C141.809 22.2533 141.187 21.8566 140.316 21.8566C139.927 21.8566 139.6 21.9422 139.336 22.1133C139.087 22.2844 138.962 22.5177 138.962 22.8133Z" fill="black"/>
<path d="M148.411 18.1C147.914 18.1 147.478 17.9211 147.105 17.5633C146.747 17.19 146.568 16.7544 146.568 16.2566C146.568 15.7589 146.747 15.3233 147.105 14.95C147.478 14.5766 147.914 14.39 148.411 14.39C148.925 14.39 149.36 14.5766 149.718 14.95C150.091 15.3233 150.278 15.7589 150.278 16.2566C150.278 16.7544 150.091 17.19 149.718 17.5633C149.36 17.9211 148.925 18.1 148.411 18.1ZM146.918 31.1666V19.5H149.928V31.1666H146.918Z" fill="black"/>
<path d="M155.368 22.8133C155.368 23.1244 155.571 23.3811 155.975 23.5833C156.395 23.77 156.901 23.9411 157.492 24.0966C158.083 24.2366 158.674 24.4233 159.265 24.6566C159.856 24.8744 160.354 25.2477 160.758 25.7766C161.178 26.3055 161.388 26.9666 161.388 27.76C161.388 28.9577 160.937 29.8833 160.035 30.5366C159.148 31.1744 158.036 31.4933 156.698 31.4933C154.303 31.4933 152.67 30.5677 151.798 28.7166L154.412 27.2466C154.754 28.2577 155.516 28.7633 156.698 28.7633C157.772 28.7633 158.308 28.4289 158.308 27.76C158.308 27.4489 158.098 27.2 157.678 27.0133C157.274 26.8111 156.776 26.6322 156.185 26.4766C155.594 26.3211 155.003 26.1266 154.412 25.8933C153.821 25.66 153.315 25.2944 152.895 24.7966C152.491 24.2833 152.288 23.6455 152.288 22.8833C152.288 21.7322 152.708 20.83 153.548 20.1766C154.404 19.5077 155.462 19.1733 156.722 19.1733C157.671 19.1733 158.534 19.3911 159.312 19.8266C160.09 20.2466 160.704 20.8533 161.155 21.6466L158.588 23.0466C158.215 22.2533 157.593 21.8566 156.722 21.8566C156.333 21.8566 156.006 21.9422 155.742 22.1133C155.493 22.2844 155.368 22.5177 155.368 22.8133Z" fill="black"/>
<path d="M169.656 22.3933H167.019V27.2466C167.019 27.6511 167.12 27.9466 167.322 28.1333C167.525 28.32 167.82 28.4289 168.209 28.46C168.598 28.4755 169.08 28.4677 169.656 28.4366V31.1666C167.587 31.4 166.125 31.2055 165.269 30.5833C164.429 29.9611 164.009 28.8489 164.009 27.2466V22.3933H161.979V19.5H164.009V17.1433L167.019 16.2333V19.5H169.656V22.3933Z" fill="black"/>
</svg>
