<svg width="44" height="44" viewBox="0 0 44 44" fill="none" xmlns="http://www.w3.org/2000/svg">
<circle cx="22" cy="22" r="22" fill="#FFDA30"/>
<g clip-path="url(#clip0_10002_904)">
<path d="M27.2065 15.5H18.4913C16.3995 15.5 14.698 17.0574 14.698 18.977V25.0871L13.1159 27.418C12.9015 27.7344 12.9823 28.1668 13.2987 28.3812C13.4148 28.4586 13.5483 28.5008 13.689 28.5008H27.203C29.2948 28.5008 30.9964 26.9398 30.9964 25.0238V18.977C30.9999 17.0609 29.2983 15.5 27.2065 15.5ZM23.6874 24.6301H18.9308C18.5476 24.6301 18.2382 24.3207 18.2382 23.9375C18.2382 23.5543 18.5476 23.2449 18.9308 23.2449H23.6874C24.0706 23.2449 24.38 23.5543 24.38 23.9375C24.38 24.3207 24.0706 24.6301 23.6874 24.6301ZM26.8058 20.7559H18.9308C18.5476 20.7559 18.2382 20.4465 18.2382 20.0633C18.2382 19.6801 18.5476 19.3707 18.9308 19.3707H26.8058C27.189 19.3707 27.4983 19.6801 27.4983 20.0633C27.4983 20.4465 27.189 20.7559 26.8058 20.7559Z" fill="black"/>
</g>
<defs>
<clipPath id="clip0_10002_904">
<rect width="18" height="18" fill="white" transform="translate(13 13)"/>
</clipPath>
</defs>
</svg>
