<svg xmlns="http://www.w3.org/2000/svg" width="108" height="19" viewBox="0 0 108 19" fill="none"><path fill-rule="evenodd" clip-rule="evenodd" d="M104.319 1.09852L104.334 1.22341L104.591 1.23703L104.85 1.25065V2.11123V2.97181H105.006H105.163V2.11123V1.25065L105.421 1.23703L105.679 1.22341L105.693 1.09852L105.707 0.973633H105.006H104.305L104.319 1.09852ZM106.015 1.97272V2.97181H106.173H106.329L106.332 2.30197L106.335 1.63212L106.544 2.05219L106.753 2.47227H106.9H107.046L107.269 2.02949L107.491 1.58671L107.493 2.27926L107.496 2.97181H107.63H107.765V1.97272V0.973633H107.63H107.495L107.216 1.5413L106.937 2.10896H106.902H106.867L106.588 1.5413L106.308 0.973633H106.162H106.015V1.97272ZM60.9869 7.4677V13.8255H61.4577H61.9285L61.9295 10.9532L61.93 8.08079L61.9958 7.76688L62.0616 7.45297L62.1948 7.16478L62.3279 6.87659L62.5557 6.63288L62.7831 6.38917L63.0441 6.24839L63.3046 6.10756L63.5921 6.03902L63.8797 5.97043H64.3055H64.7318L65.0127 6.03755L65.2941 6.10467L65.5266 6.224L65.7592 6.34327L65.9852 6.57845L66.2116 6.81359L66.3348 7.06895L66.4574 7.32432L66.5342 7.58901L66.6109 7.85371L66.627 10.8396L66.6431 13.8255H67.0908H67.5384L67.5232 10.7034L67.5081 7.58124L67.4275 7.30878L67.347 7.03627L67.2362 6.7982L67.1249 6.56003L66.9269 6.29339L66.7289 6.02666L66.4925 5.84221L66.2566 5.65777L65.9866 5.52221L65.7166 5.38665L65.4262 5.30368L65.1354 5.22071L64.3955 5.22249L63.6551 5.2243L63.2956 5.3456L62.9356 5.4669L62.6594 5.63852L62.3828 5.81014L62.1668 6.00549L61.9508 6.20093L61.9394 3.65537L61.9276 1.10987H61.4572H60.9869V7.4677ZM47.9804 2.40414V3.33511H49.1239H50.2679V2.40414V1.47318H49.1239H47.9804V2.40414ZM16.7204 4.87557L16.4738 4.91181L16.1822 4.98775L15.8907 5.06372L15.5282 5.24492L15.1657 5.42616L14.8705 5.67276L14.5752 5.91932L14.375 6.20533L14.1747 6.49134L14.0635 6.71838L13.9522 6.94546L13.8603 7.21793L13.7685 7.49044L13.6996 7.83102L13.6308 8.1716L13.5782 8.762L13.5256 9.35235L13.5556 9.98813L13.5856 10.6239L13.6553 11.0781L13.725 11.5322L13.8518 11.8846L13.9787 12.237L14.1435 12.5116L14.3082 12.7863L14.588 13.0724L14.8678 13.3586L15.1472 13.5507L15.4265 13.7427L15.6767 13.8548L15.9268 13.9668L16.3124 14.0641L16.698 14.1614L17.3707 14.1621L18.0435 14.1628L18.4471 14.0566L18.8508 13.9504L19.0906 13.8431L19.3305 13.7358L19.6379 13.5288L19.9454 13.3218L20.2053 13.0335L20.4654 12.7451L20.6158 12.4919L20.7662 12.2387L20.8702 11.9763L20.9741 11.7139L21.046 11.3581L21.118 11.0024L21.1671 10.518L21.2162 10.0336L21.1916 9.23881L21.1668 8.44411L21.0711 7.94915L20.9753 7.4542L20.8466 7.09719L20.7179 6.74017L20.5571 6.47202L20.3962 6.20386L20.1894 5.971L19.9826 5.73804L19.7034 5.53633L19.4242 5.33461L19.1375 5.19873L18.8508 5.06291L18.492 4.96831L18.1332 4.87376L17.5501 4.85655L16.9671 4.83934L16.7204 4.87557ZM22.9993 9.51132V14.1889H24.1205H25.2418L25.2426 11.3165L25.2434 8.44411L25.3067 8.14147L25.37 7.83883L25.4445 7.69299L25.519 7.54718L25.718 7.35127L25.9171 7.15535L26.1737 7.05744L26.4303 6.95953L26.8339 6.9772L27.2376 6.99487L27.456 7.10585L27.6745 7.21679L27.8705 7.43748L28.0664 7.65812L28.1566 7.9537L28.2467 8.24933V11.219V14.1889H29.4113H30.5759L30.5886 11.1121L30.6013 8.03536L30.7183 7.78559L30.8353 7.53582L31.0012 7.36515L31.167 7.19448L31.355 7.09269L31.5431 6.99089H32.0141H32.485L32.6334 7.07293L32.7818 7.15493L32.962 7.31982L33.1422 7.48466L33.2453 7.6919L33.3484 7.89913L33.3988 8.13976L33.4492 8.38044V11.2846V14.1889H34.5929H35.7366V10.9626V7.73637L35.6658 7.38632L35.5951 7.03627L35.4911 6.77385L35.3871 6.51138L35.2367 6.25389L35.0862 5.99634L34.7723 5.67176L34.4583 5.34719L34.122 5.18175L33.7856 5.01631L33.4941 4.93834L33.2025 4.86032L32.5523 4.86009L31.9019 4.85986L31.528 4.96168L31.1541 5.06349L30.8777 5.20441L30.6013 5.34537L30.4012 5.48434L30.2011 5.6233L30.0396 5.77111L29.878 5.9189L29.5858 5.63579L29.2936 5.35269L28.9832 5.18793L28.6728 5.02312L28.3926 4.94996L28.1124 4.87676L27.6974 4.84955L27.2824 4.8224L26.9525 4.87467L26.6224 4.92693L26.347 5.02058L26.0715 5.11422L25.8067 5.27671L25.5419 5.43924L25.3918 5.57262L25.2418 5.706V5.2699V4.83375H24.1205H22.9993V9.51132ZM38.0239 9.51132V14.1889H39.1451H40.2663L40.2677 11.4073L40.2691 8.62576L40.3112 8.29779L40.3532 7.96976L40.4643 7.74793L40.5753 7.52606L40.6862 7.39262L40.7971 7.25919L41.0363 7.12504L41.2754 6.99089H41.7464H42.2173L42.4066 7.0933L42.596 7.19576L42.7524 7.33488L42.9088 7.47395L43.0212 7.70923L43.1335 7.94456L43.1796 8.23971L43.2257 8.53491L43.226 11.3619L43.2264 14.1889H44.3701H45.5137L45.5134 10.9759L45.513 7.7629L45.467 7.4677L45.421 7.17255L45.3266 6.87735L45.2321 6.58215L45.131 6.3778L45.0299 6.17345L44.8121 5.89029L44.5943 5.60709L44.3476 5.41804L44.101 5.22898L43.8222 5.09978L43.5435 4.97053L43.127 4.89687L42.7106 4.82317L42.2845 4.84969L41.8585 4.87626L41.5263 4.97062L41.1942 5.06504L40.8852 5.24783L40.5761 5.43057L40.4212 5.56831L40.2663 5.706V5.2699V4.83375H39.1451H38.0239V9.51132ZM47.9804 9.51132V14.1889H49.1239H50.2679V9.51132V4.83375H49.1239H47.9804V9.51132ZM4.5614 4.98348L4.30993 5.09083L4.17421 5.18865L4.03855 5.28652L3.89207 5.45541L3.74559 5.62434L3.63212 5.87532L3.5187 6.12623L3.49892 6.47159L3.47919 6.81695L3.55462 7.07961L3.63001 7.34227L3.7329 7.50716L3.83583 7.67205L4.01043 7.84475L4.18502 8.01751L4.45587 8.14905L4.72676 8.28064L5.01771 8.31086L5.3086 8.34099L5.59745 8.2661L5.8863 8.19116L6.10197 8.05104L6.31759 7.91088L6.47324 7.72681L6.62885 7.54269L6.72003 7.35203L6.81117 7.16142L6.86076 6.87631L6.91041 6.59124L6.85698 6.2887L6.80359 5.98616L6.67404 5.75647L6.54444 5.52675L6.35511 5.33879L6.16573 5.15087L5.9169 5.02757L5.66808 4.90427L5.24048 4.8902L4.81293 4.87612L4.5614 4.98348ZM55.7394 5.26499L55.4476 5.32439L55.1473 5.43942L54.847 5.55446L54.5869 5.7208L54.3264 5.88716L54.0649 6.14385L53.803 6.40049L53.6234 6.6649L53.4444 6.92936L53.3155 7.20987L53.1872 7.49044L53.0778 7.87644L52.9683 8.26245L52.9186 8.67114L52.8693 9.07988L52.8708 9.51132L52.8717 9.94275L52.9153 10.2833L52.9589 10.6239L53.0508 10.9872L53.1431 11.3505L53.2881 11.6914L53.4325 12.0322L53.6026 12.2915L53.7726 12.5509L54.0209 12.8065L54.2695 13.062L54.567 13.2556L54.865 13.4492L55.1563 13.5659L55.4476 13.6826L55.8516 13.7596L56.2552 13.8365L56.8156 13.8115L57.3764 13.7866L57.6455 13.7135L57.9145 13.6404L58.1959 13.5079L58.4768 13.3753L58.734 13.1733L58.9907 12.9712L59.1916 12.7618L59.3924 12.5525L59.094 12.2506L58.7961 11.9487L58.5346 12.2172L58.2726 12.4859L58.024 12.6526L57.7753 12.8195L57.4859 12.92L57.1969 13.0206L56.7483 13.0413L56.2998 13.062L55.9634 12.9902L55.6271 12.9186L55.3093 12.7601L54.9914 12.6016L54.7413 12.3586L54.4917 12.1155L54.3079 11.8274L54.1236 11.5393L54.0171 11.1951L53.91 10.851L53.8551 10.5037L53.8001 10.1564L53.8224 9.27755L53.8442 8.39868L53.9384 8.04446L54.0327 7.69019L54.2018 7.36325L54.3714 7.03627L54.6627 6.7379L54.9545 6.43947L55.2013 6.29832L55.4476 6.15721L55.7844 6.06219L56.1207 5.96716L56.5915 5.96683L57.0624 5.96655L57.3276 6.03732L57.5934 6.10813L57.8596 6.25199L58.1263 6.39585L58.4593 6.71052L58.7918 7.02523L59.0448 6.8018L59.2977 6.57836L59.3446 6.50281L59.3915 6.4273L59.2811 6.30533L59.1703 6.1834L58.834 5.91009L58.4976 5.63675L58.1836 5.48743L57.8695 5.33815L57.5242 5.26758L57.1784 5.19705L56.6048 5.20132L56.0307 5.20559L55.7394 5.26499ZM72.4908 5.24479L72.2217 5.2867L71.9299 5.37621L71.6386 5.46572L71.3695 5.62929L71.1005 5.79285L70.8835 6.00586L70.6671 6.21883L70.5809 6.3392L70.4951 6.45956L70.8087 6.74126L71.1228 7.02291L71.4477 6.68636L71.7731 6.34981L72.0204 6.22745L72.2681 6.10501L72.5812 6.03784L72.8943 5.97067L73.4405 5.96986L73.9871 5.96906L74.3106 6.03793L74.6337 6.10676L74.8279 6.19363L75.0217 6.28055L75.2395 6.48689L75.4574 6.69318L75.5721 6.93282L75.6867 7.17255L75.7369 7.41318L75.7871 7.65381V8.32962V9.00537L73.9819 9.02058L72.1767 9.03583L71.8181 9.16339L71.46 9.29091L71.2128 9.44368L70.9655 9.59639L70.7585 9.815L70.551 10.0336L70.4364 10.2379L70.3222 10.4422L70.2516 10.7213L70.1811 11.0003V11.427V11.8537L70.2498 12.1219L70.3189 12.39L70.4563 12.6337L70.5941 12.8773L70.8115 13.0975L71.029 13.3177L71.3449 13.4777L71.6604 13.6376L72.0081 13.7202L72.3562 13.8028L73.2306 13.8022L74.1051 13.8017L74.4556 13.6995L74.8056 13.5973L75.0183 13.4882L75.231 13.379L75.4977 13.1746L75.7644 12.9703L75.7776 13.3995L75.7904 13.8287L76.2485 13.8158L76.7065 13.8028V10.6012V7.39959L76.6284 7.11395L76.5502 6.82832L76.4299 6.56898L76.3096 6.30969L76.0145 6.01089L75.7199 5.71209L75.4281 5.5684L75.1368 5.42467L74.7777 5.32798L74.4191 5.2313L73.5892 5.21708L72.7598 5.20287L72.4908 5.24479ZM80.0029 9.51132V13.8255H80.4719H80.9408L80.9545 10.8624L80.9683 7.89913L81.073 7.58124L81.1781 7.26335L81.3288 7.01041L81.4794 6.75746L81.72 6.5272L81.9602 6.29699L82.1364 6.20619L82.3126 6.11533L82.5561 6.0422L82.8 5.96906H83.2131H83.6261L83.9113 6.0583L84.1969 6.14754L84.4773 6.37619L84.7573 6.60484H84.7919H84.8269L85.1059 6.31982L85.3849 6.03476V5.98469V5.93462L85.194 5.77774L85.0036 5.62085L84.798 5.49982L84.592 5.3788L84.2414 5.28792L83.8904 5.19705L83.4153 5.19738L82.9407 5.19769L82.5641 5.28902L82.188 5.38029L81.8692 5.54878L81.55 5.7172L81.2473 6.0152L80.9446 6.31314V5.7551V5.19705H80.4738H80.0029V9.51132ZM89.1554 5.24642L88.957 5.28584L88.7296 5.36009L88.5018 5.43438L88.3 5.54923L88.0982 5.66408L87.9054 5.82141L87.7126 5.97872L87.5387 6.2123L87.3644 6.44592L87.228 6.72496L87.0911 7.00411L86.9817 7.34407L86.8718 7.68408L86.7936 8.17761L86.7155 8.67114L86.7169 9.51132L86.7183 10.3514L86.7889 10.8056L86.859 11.2597L86.9793 11.6457L87.0996 12.0317L87.2242 12.2818L87.3483 12.5319L87.5572 12.8131L87.7661 13.0943L87.9845 13.2567L88.2033 13.4193L88.489 13.5505L88.7751 13.6818L89.1185 13.7537L89.4624 13.8255H89.8854H90.3084L90.6802 13.7541L91.0521 13.6826L91.3386 13.5512L91.6248 13.4197L91.908 13.1917L92.1908 12.9638L92.2647 12.8497L92.3386 12.7356H92.3883H92.4381L92.4144 13.8369L92.3907 14.9382L92.296 15.2988L92.2012 15.6595L92.035 16.0002L91.8687 16.3409L91.6205 16.5967L91.3723 16.8525L91.1667 16.9739L90.9606 17.0952L90.6101 17.1861L90.2591 17.2769L89.8063 17.2763L89.3539 17.2756L89.0725 17.2084L88.7916 17.1413L88.5737 17.0295L88.3554 16.9177L87.9892 16.6382L87.6231 16.3588L87.345 16.6225L87.0665 16.8863L87.0475 16.9002L87.0291 16.914L87.1338 17.0268L87.238 17.1396L87.5563 17.3614L87.8741 17.5832L88.1465 17.7221L88.4193 17.8608L88.7073 17.942L88.9953 18.0233L89.7802 18.0247L90.5646 18.0263L90.8564 17.9453L91.1478 17.8643L91.4395 17.7267L91.7309 17.5891L91.9999 17.3801L92.269 17.1711L92.4859 16.9175L92.7024 16.6639L92.9009 16.2552L93.0998 15.8464L93.1998 15.4831L93.2997 15.1198L93.3125 10.1584L93.3258 5.19705H92.8757H92.4262V5.74202V6.28695H92.4134H92.4007L92.0875 5.97692L91.7749 5.66685L91.4391 5.50178L91.1032 5.33665L90.7574 5.26686L90.4116 5.19705L89.883 5.20205L89.3539 5.207L89.1554 5.24642ZM98.74 5.28711L98.3937 5.37603L98.1341 5.50868L97.8745 5.64133L97.6036 5.84775L97.3326 6.05409L97.1256 6.32091L96.9186 6.58769L96.7396 6.94821L96.561 7.30878L96.4668 7.6325L96.3725 7.95626L96.3057 8.40455L96.2389 8.8528L96.2384 9.54087V10.2289L96.3275 10.7563L96.4165 11.2836L96.5643 11.6819L96.7121 12.0803L96.9239 12.4028L97.1356 12.7254L97.417 12.9916L97.6983 13.2579L97.9674 13.4028L98.2364 13.5476L98.6391 13.6682L99.0412 13.7888L99.6471 13.8123L100.252 13.8359L100.671 13.7619L101.09 13.6879L101.415 13.5602L101.74 13.4325L102.117 13.1793L102.495 12.9262L102.692 12.7489L102.89 12.5716L102.554 12.2929L102.216 12.0142L102.019 12.1986L101.822 12.3831L101.505 12.5958L101.187 12.8084L100.877 12.9136L100.566 13.0187L100.051 13.0405L99.5348 13.0623L99.2189 12.9942L98.9029 12.9262L98.5945 12.7785L98.2857 12.6308L98.0133 12.354L97.7405 12.0771L97.5747 11.7572L97.4094 11.4373L97.3175 11.0987L97.2261 10.7602L97.1815 10.3288L97.137 9.89732L97.1361 9.79515L97.1351 9.69297H100.052H102.969L102.997 9.61676L103.026 9.54054L102.975 8.85607L102.924 8.1716L102.832 7.79047L102.74 7.40925L102.563 7.02708L102.386 6.64491L102.242 6.45459L102.098 6.26426L101.938 6.08814L101.777 5.91203L101.447 5.69106L101.116 5.47008L100.752 5.35005L100.387 5.23003L99.7366 5.21413L99.0862 5.19819L98.74 5.28711ZM5.62559 5.44619L5.78508 5.51367L5.95816 5.65246L6.1312 5.79124L6.25691 6.05044L6.38263 6.30969L6.37917 6.60484L6.37571 6.90004L6.26004 7.12712L6.14432 7.35416L6.0168 7.475L5.88929 7.59583L5.68825 7.7008L5.48722 7.80577L5.17246 7.8043L4.85774 7.80283L4.66837 7.70307L4.47892 7.60332L4.32913 7.45169L4.17933 7.30002L4.0925 7.12272L4.00562 6.94546L4.0067 6.58215L4.00778 6.21883L4.08604 6.07185L4.16426 5.92491L4.30885 5.75813L4.45344 5.59138L4.67805 5.48547L4.9026 5.37962L5.18435 5.37916L5.4661 5.37871L5.62559 5.44619ZM90.4552 5.98895L90.7039 6.01316L90.9587 6.10197L91.2136 6.19074L91.4116 6.32873L91.6096 6.46666L91.7754 6.69526L91.9412 6.92391L92.0947 7.35837L92.2481 7.79284L92.3215 8.20925L92.395 8.62576L92.3959 9.48858L92.3964 10.3514L92.3206 10.7829L92.2448 11.2143L92.1496 11.5095L92.0549 11.8047L91.9307 12.0563L91.8062 12.308L91.6172 12.4996L91.4282 12.6911L91.1534 12.8231L90.8787 12.955L90.6125 13.0043L90.3468 13.0535L89.9849 13.0529L89.623 13.0522L89.3359 12.9836L89.0484 12.915L88.7826 12.7717L88.5174 12.6284L88.3596 12.4436L88.2024 12.2588L88.1005 12.0544L87.9987 11.8501L87.9035 11.5549L87.8088 11.2597L87.7358 10.9191L87.6629 10.5785L87.6392 9.79899L87.615 9.01949L87.6685 8.57285L87.7221 8.12622L87.8102 7.78559L87.8988 7.44501L87.9954 7.19524L88.0925 6.94546L88.1896 6.78626L88.2872 6.62705L88.471 6.45899L88.6547 6.29093L88.8253 6.20287L88.9958 6.11481L89.1971 6.05982L89.3989 6.00482L89.6902 5.97204L89.982 5.93922L90.0938 5.95196L90.2061 5.96475L90.4552 5.98895ZM100.246 6.04101L100.521 6.11296L100.775 6.24962L101.029 6.38628L101.257 6.59773L101.485 6.80923L101.64 7.07592L101.796 7.3426L101.914 7.70246L102.033 8.06232L102.063 8.51966L102.093 8.97705L102.047 8.99486L102.001 9.01267L99.5798 9.00087L97.1579 8.98903L97.1725 8.67114L97.1877 8.35325L97.254 8.01267L97.3208 7.67205L97.4994 7.2949L97.6784 6.91771L97.9342 6.65912L98.1905 6.40049L98.4638 6.2536L98.7376 6.10662L98.9792 6.04087L99.2207 5.97507L99.5954 5.97209L99.9701 5.96906L100.246 6.04101ZM18.0492 7.09387L18.2343 7.1914L18.4167 7.40124L18.5991 7.61099L18.689 7.89127L18.7789 8.1716L18.826 8.44107L18.8732 8.71055L18.8728 9.4856L18.8725 10.2606L18.827 10.5558L18.7815 10.851L18.6819 11.1462L18.5824 11.4413L18.3532 11.676L18.124 11.9107L17.885 11.9825L17.646 12.0544L17.3514 12.0547L17.0568 12.0549L16.833 11.9752L16.6091 11.8955L16.4016 11.6911L16.194 11.4868L16.0978 11.2225L16.0017 10.9582L15.93 10.5412L15.8583 10.1244L15.8823 9.28423L15.9062 8.44411L15.9924 8.12622L16.0785 7.80833L16.1737 7.62018L16.2688 7.43208L16.4559 7.26999L16.6429 7.10784L16.8274 7.03906L17.012 6.97024L17.438 6.98326L17.8641 6.99629L18.0492 7.09387ZM75.7871 10.4815V11.27L75.7421 11.5086L75.6976 11.7471L75.5782 12.017L75.4584 12.2868L75.2528 12.4721L75.0472 12.6575L74.7682 12.7909L74.4897 12.9243L74.1406 12.9873L73.791 13.0504L73.3202 13.0516L72.8493 13.0529L72.5675 13.0065L72.2857 12.9602L72.0389 12.8668L71.7925 12.7734L71.6035 12.6295L71.4141 12.4857L71.272 12.2023L71.1299 11.9188L71.0976 11.614L71.0654 11.3092L71.1147 11.0417L71.1635 10.7742L71.254 10.5855L71.344 10.3969L71.5112 10.2229L71.6779 10.0489L71.9005 9.93484L72.1232 9.82063L72.3965 9.76043L72.6698 9.70018L74.2287 9.69653L75.7871 9.69297V10.4815ZM1.61157 10.6974L1.37032 10.7384L1.10692 10.8805L0.843569 11.0227L0.660225 11.2241L0.476923 11.4255L0.357581 11.6832L0.238281 11.9409V12.3951V12.8492L0.368389 13.1344L0.498495 13.4197L0.759253 13.6642L1.02005 13.9087L1.27313 14.0046L1.52627 14.1004L1.77993 14.1273L2.03364 14.1542L2.31445 14.0813L2.59521 14.0085L2.83107 13.8557L3.06693 13.7029L3.19583 13.5485L3.32477 13.3941L3.4634 13.099L3.60198 12.8038L3.59992 12.3951L3.5979 11.9863L3.47811 11.723L3.35832 11.4598L3.22695 11.2983L3.09559 11.137L2.88376 10.9845L2.67199 10.832L2.46425 10.7657L2.2565 10.6993L2.05468 10.6778L1.85286 10.6563L1.61157 10.6974ZM7.92295 10.7554L7.75897 10.8147L7.56044 10.9325L7.36183 11.0503L7.19225 11.2404L7.02262 11.4304L6.90449 11.6857L6.7863 11.9409L6.7864 12.4177L6.78659 12.8946L6.91737 13.1564L7.0482 13.4182L7.27931 13.6396L7.51047 13.8609L7.68768 13.9525L7.86488 14.044L8.14199 14.0992L8.41914 14.1544L8.66844 14.1229L8.91774 14.0914L9.22672 13.9348L9.53571 13.7783L9.70206 13.5918L9.86852 13.4053L10.0067 13.1063L10.1449 12.8074L10.1457 12.4422L10.1466 12.0771L10.0679 11.8441L9.98935 11.611L9.84408 11.4042L9.6988 11.1973L9.49833 11.0354L9.29787 10.8735L9.0607 10.7828L8.82357 10.692L8.45523 10.6941L8.0869 10.696L7.92295 10.7554Z" fill="#323232"></path></svg>