<svg width="44" height="44" viewBox="0 0 44 44" fill="none" xmlns="http://www.w3.org/2000/svg">
<circle cx="22" cy="22" r="22" fill="#FFDA30"/>
<g clip-path="url(#clip0_10002_866)">
<path fill-rule="evenodd" clip-rule="evenodd" d="M18.3333 17.4167C18.3333 16.4442 18.7196 15.5116 19.4073 14.8239C20.0949 14.1363 21.0275 13.75 22 13.75C22.9725 13.75 23.9051 14.1363 24.5927 14.8239C25.2804 15.5116 25.6667 16.4442 25.6667 17.4167C25.6667 18.3891 25.2804 19.3218 24.5927 20.0094C23.9051 20.697 22.9725 21.0833 22 21.0833C21.0275 21.0833 20.0949 20.697 19.4073 20.0094C18.7196 19.3218 18.3333 18.3891 18.3333 17.4167ZM18.3333 22.9167C17.1178 22.9167 15.952 23.3996 15.0924 24.2591C14.2329 25.1186 13.75 26.2844 13.75 27.5C13.75 28.2293 14.0397 28.9288 14.5555 29.4445C15.0712 29.9603 15.7707 30.25 16.5 30.25H27.5C28.2293 30.25 28.9288 29.9603 29.4445 29.4445C29.9603 28.9288 30.25 28.2293 30.25 27.5C30.25 26.2844 29.7671 25.1186 28.9076 24.2591C28.048 23.3996 26.8822 22.9167 25.6667 22.9167H18.3333Z" fill="black"/>
</g>
<defs>
<clipPath id="clip0_10002_866">
<rect width="22" height="22" fill="white" transform="translate(11 11)"/>
</clipPath>
</defs>
</svg>
