<svg width="44" height="44" viewBox="0 0 44 44" fill="none" xmlns="http://www.w3.org/2000/svg">
<circle cx="22" cy="22" r="22" fill="#FFDA30"/>
<g clip-path="url(#clip0_10002_914)">
<path d="M14.582 31C13.7097 31 13 30.2903 13 29.418C13 28.9916 13.1638 28.593 13.4604 28.2963L18.5187 23.2375C18.3807 22.8482 18.3086 22.4269 18.3086 22C18.3086 19.9648 19.9648 18.3086 22 18.3086C23.1709 18.3086 23.8209 18.8163 24.2536 18.9904L22.3379 20.9201V21.6627H23.0805L25.0086 19.746C25.1825 20.1776 25.6914 20.8298 25.6914 22C25.6914 24.0352 24.0352 25.6914 22 25.6914C21.5736 25.6914 21.1523 25.6193 20.763 25.4808L15.7037 30.5396C15.4081 30.8362 15.0095 31 14.582 31Z" fill="black"/>
<path d="M31 23.582V20.418H28.6649C28.4991 19.7129 28.2159 19.0301 27.8337 18.4075L29.4528 16.778L27.2219 14.5481L25.5925 16.1662C24.9694 15.7836 24.2865 15.5014 23.582 15.3351V13H20.418V15.3351C19.7135 15.5014 19.0306 15.7836 18.4075 16.1663L16.778 14.5482L14.5471 16.7781L16.1662 18.4075C15.7841 19.0301 15.5009 19.7129 15.3351 20.418H13V23.582H15.3351C15.4165 23.9281 15.5328 24.266 15.6684 24.5965L17.3425 22.9223C17.2838 22.6211 17.2539 22.3126 17.2539 22C17.2539 19.3788 19.3788 17.2539 22 17.2539C24.538 17.2539 26.7461 19.3676 26.7461 22C26.7461 24.6212 24.6212 26.7461 22 26.7461C21.6869 26.7461 21.3789 26.7162 21.0782 26.6575L19.404 28.3313C19.7346 28.4668 20.0723 28.5832 20.418 28.6649V31H23.582V28.6649C24.2865 28.4986 24.9694 28.2164 25.5925 27.8337L27.222 29.4518L29.4529 27.2224L27.8338 25.592C28.2159 24.9699 28.4981 24.2875 28.665 23.582H31V23.582Z" fill="black"/>
</g>
<defs>
<clipPath id="clip0_10002_914">
<rect width="18" height="18" fill="white" transform="translate(13 13)"/>
</clipPath>
</defs>
</svg>
