<svg width="40" height="40" viewBox="0 0 40 40" fill="none" xmlns="http://www.w3.org/2000/svg">
<rect width="40" height="40" rx="20" fill="#E7EDF0"/>
<path d="M17.022 26C15.259 26.0071 13.5258 25.5453 12 24.662C13.231 24.735 15.405 24.561 16.756 23.383C14.723 23.298 13.806 21.874 13.686 21.266C13.859 21.326 14.683 21.4 15.148 21.229C12.81 20.694 12.45 18.82 12.53 18.247C12.969 18.527 13.713 18.625 14.005 18.6C11.825 17.176 12.61 15.034 12.995 14.572C14.559 16.551 16.904 17.662 19.804 17.724C19.7483 17.5013 19.72 17.2726 19.72 17.043C19.72 15.363 21.208 14 23.043 14C24.002 14 24.865 14.372 25.472 14.967C26.112 14.83 27.077 14.509 27.548 14.231C27.311 15.011 26.571 15.66 26.123 15.901C26.12 15.893 26.127 15.909 26.123 15.901C26.516 15.846 27.58 15.66 28 15.4C27.792 15.837 27.008 16.565 26.364 16.972C26.484 21.794 22.444 26 17.022 26Z" fill="#4F5C62"/>
</svg>
