<svg width="40" height="40" viewBox="0 0 40 40" fill="none" xmlns="http://www.w3.org/2000/svg">
<rect width="40" height="40" rx="20" fill="#E7EDF0"/>
<path d="M27.6991 15.6121C27.4991 14.9581 26.9991 14.4921 26.2991 14.3051C24.1991 14.1181 22.0991 13.9311 19.9991 14.0251C17.8991 14.0251 15.7991 14.1181 13.6991 14.3051C13.0991 14.4921 12.4991 15.0521 12.2991 15.6121C11.9003 18.5238 11.9003 21.4764 12.2991 24.3881C12.4991 25.0411 12.9991 25.5081 13.6991 25.6951C15.7991 25.8821 17.8991 26.0681 19.9991 25.9751C22.0991 25.9751 24.1991 25.8821 26.2991 25.6951C26.9991 25.5081 27.4991 25.0411 27.6991 24.3881C28.0979 21.4764 28.0979 18.5238 27.6991 15.6121ZM17.9991 22.8011V17.1991L23.1991 20.0001L17.9991 22.8011Z" fill="#4F5C62"/>
</svg>
